#!OML:ASF E:\I on waltz\AllaLogoMonkeySwing\Project 1\Capture day 1\Session 1\Subject1.ASF
:FULLY-SPECIFIED
:DEGREES
697
root 1.6205 17.887 4.81816 1.15163 -2.59066 -1.82304
lowerback 9.67069 1.07111 -0.381386
upperback -1.24083 1.49542 1.68144
thorax -6.79471 0.78194 1.75142
lowerneck -12.7424 1.51098 -0.0460898
upperneck 6.19579 2.23335 -2.16021
head 4.39328 0.981644 -0.551025
rclavicle -2.46617e-014 5.76476e-015
rhumerus -31.5425 -17.1695 -79.6509
rradius 35.6614
rwrist -2.36836
rhand -8.36207 -35.5384
rfingers 7.12502
rthumb 17.5604 -64.7654
lclavicle -2.46617e-014 5.76476e-015
lhumerus -40.0525 19.565 79.8201
lradius 45.8594
lwrist 1.11636
lhand -7.75793 -16.224
lfingers 7.12502
lthumb 18.1417 12.95
rfemur -3.63805 -0.412409 21.1573
rtibia 17.9114
rfoot -14.1596 -7.20621
rtoes 20.2593
lfemur 0.127467 0.73849 -17.8228
ltibia 12.0115
lfoot -14.0885 3.35265
ltoes -26.6611
698
root 1.61952 17.8813 4.85338 0.98061 -2.46525 -1.74839
lowerback 9.40337 0.966538 -0.433111
upperback -1.44046 1.35081 1.67069
thorax -6.84993 0.714437 1.79429
lowerneck -12.819 1.5584 -0.0174306
upperneck 7.23603 2.32907 -2.33447
head 4.27645 1.00527 -0.546837
rclavicle -6.34869e-015 -9.93923e-016
rhumerus -31.1367 -17.5858 -79.6908
rradius 35.0539
rwrist -2.13359
rhand -9.04167 -35.4265
rfingers 7.12502
rthumb 16.9063 -64.7107
lclavicle -6.34869e-015 -9.93923e-016
lhumerus -39.8769 20.3939 79.5411
lradius 45.0778
lwrist 1.09906
lhand -8.12224 -16.3336
lfingers 7.12502
lthumb 17.7912 12.8725
rfemur -3.20375 -0.114633 21.1243
rtibia 17.757
rfoot -14.408 -7.62552
rtoes 19.893
lfemur 0.565135 0.657249 -17.9066
ltibia 11.7483
lfoot -14.1183 3.32062
ltoes -26.7923
699
root 1.61728 17.8753 4.88686 0.785801 -2.29486 -1.68722
lowerback 9.15161 0.858192 -0.474163
upperback -1.60038 1.20181 1.65847
thorax -6.871 0.643982 1.82957
lowerneck -12.9028 1.62674 0.0651917
upperneck 7.89862 2.4444 -2.52888
head 4.49983 1.04467 -0.608596
rclavicle -1.43995e-014 -2.78299e-015
rhumerus -30.7106 -18.1907 -79.6667
rradius 34.2182
rwrist -1.88227
rhand -9.50895 -35.2942
rfingers 7.12502
rthumb 16.4565 -64.6163
lclavicle -1.43995e-014 -2.78299e-015
lhumerus -39.6886 21.1487 79.2904
lradius 44.155
lwrist 1.10137
lhand -8.65956 -16.4423
lfingers 7.12502
lthumb 17.2741 12.81
rfemur -2.75701 0.149599 21.1182
rtibia 17.6242
rfoot -14.3663 -8.07291
rtoes 19.7902
lfemur 0.935365 0.638586 -17.9671
ltibia 11.6112
lfoot -14.2048 3.19422
ltoes -26.9682
700
root 1.61449 17.8703 4.91863 0.552286 -2.12501 -1.77865
lowerback 8.88903 0.761948 -0.379619
upperback -1.67533 1.08612 1.69026
thorax -6.7948 0.58439 1.82917
lowerneck -13.2197 1.71617 0.162799
upperneck 8.70549 2.59396 -2.73049
head 4.80799 1.09634 -0.67013
rclavicle -1.18122e-014 4.57205e-015
rhumerus -30.2821 -18.9681 -79.5939
rradius 33.3159
rwrist -1.75154
rhand -9.36379 -35.4888
rfingers 7.12502
rthumb 16.5962 -64.7992
lclavicle -1.18122e-014 4.57205e-015
lhumerus -39.4839 22.0226 79.0448
lradius 43.3165
lwrist 0.85277
lhand -8.96012 -16.2744
lfingers 7.12502
lthumb 16.9848 13.003
rfemur -2.2739 0.430236 21.2925
rtibia 17.4887
rfoot -14.519 -8.57339
rtoes 20.9554
lfemur 1.29654 0.602085 -17.855
ltibia 11.5774
lfoot -14.3201 3.05221
ltoes -26.9245
701
root 1.60981 17.8658 4.95101 0.327673 -1.99148 -1.92724
lowerback 8.58438 0.6938 -0.288049
upperback -1.70289 1.00891 1.76664
thorax -6.64678 0.544149 1.87127
lowerneck -13.6533 1.76176 0.317188
upperneck 9.52955 2.69213 -3.04592
head 5.14445 1.11435 -0.779599
rclavicle -2.2208e-014 -5.56597e-015
rhumerus -29.8844 -19.8184 -79.499
rradius 32.2263
rwrist -2.12385
rhand -9.56575 -35.676
rfingers 7.12502
rthumb 16.4018 -65.0026
lclavicle -2.2208e-014 -5.56597e-015
lhumerus -39.3975 23.0017 78.8253
lradius 42.7116
lwrist 0.266489
lhand -8.85661 -15.917
lfingers 7.12502
lthumb 17.0845 13.3518
rfemur -1.80491 0.725416 21.5554
rtibia 17.3482
rfoot -14.4514 -9.10749
rtoes 20.8209
lfemur 1.62493 0.505767 -17.673
ltibia 11.6203
lfoot -14.4599 2.99094
ltoes -26.8296
702
root 1.60453 17.8607 4.98498 0.134529 -1.89728 -1.9868
lowerback 8.3488 0.635957 -0.285465
upperback -1.78522 0.933891 1.80243
thorax -6.59716 0.508303 1.91957
lowerneck -13.9879 1.78794 0.416542
upperneck 10.2839 2.76104 -3.25114
head 5.4419 1.1241 -0.849722
rclavicle 1.55592e-015 8.74653e-015
rhumerus -29.6496 -20.9045 -79.2589
rradius 31.1045
rwrist -1.89931
rhand -9.34641 -35.7802
rfingers 7.12502
rthumb 16.613 -65.0892
lclavicle 1.55592e-015 8.74653e-015
lhumerus -39.4799 23.4906 78.6991
lradius 42.1521
lwrist -0.0966515
lhand -8.81483 -15.4779
lfingers 7.12502
lthumb 17.1247 13.7874
rfemur -1.36922 0.996356 21.7197
rtibia 17.2081
rfoot -14.4277 -9.57136
rtoes 20.5486
lfemur 1.90642 0.405785 -17.5945
ltibia 11.7028
lfoot -14.612 2.97997
ltoes -26.8091
703
root 1.6011 17.8546 5.01812 -0.0377613 -1.83571 -1.9737
lowerback 8.16102 0.569323 -0.333735
upperback -1.89617 0.839723 1.7959
thorax -6.60434 0.464538 1.95418
lowerneck -14.1897 1.87206 0.483766
upperneck 10.9386 2.8907 -3.29846
head 5.68569 1.17583 -0.860955
rclavicle 7.26806e-016 1.13307e-014
rhumerus -29.5688 -21.7894 -79.0436
rradius 30.0319
rwrist -1.54134
rhand -9.24034 -35.6049
rfingers 7.12502
rthumb 16.7151 -64.9053
lclavicle 7.26806e-016 1.13307e-014
lhumerus -39.6255 23.6786 78.6022
lradius 41.5371
lwrist -0.364211
lhand -8.79496 -15.0477
lfingers 7.12502
lthumb 17.1438 14.2159
rfemur -0.984803 1.19954 21.7642
rtibia 17.1111
rfoot -14.5158 -9.85667
rtoes 20.3796
lfemur 2.19345 0.287488 -17.6137
ltibia 11.7493
lfoot -14.7087 3.01202
ltoes -26.9774
704
root 1.59875 17.8483 5.05036 -0.21165 -1.76794 -1.98925
lowerback 7.95314 0.52292 -0.338015
upperback -1.96511 0.777574 1.80567
thorax -6.55616 0.434581 1.97634
lowerneck -14.3966 1.945 0.572037
upperneck 11.5298 3.00933 -3.41381
head 5.91281 1.2183 -0.89794
rclavicle -9.93923e-017 -1.78906e-015
rhumerus -29.5196 -22.3561 -78.8761
rradius 29.0253
rwrist -1.38823
rhand -9.29303 -35.6217
rfingers 7.12502
rthumb 16.6643 -64.9264
lclavicle -9.93923e-017 -1.78906e-015
lhumerus -39.698 23.8232 78.6083
lradius 40.8919
lwrist -0.954279
lhand -8.46769 -14.745
lfingers 7.12502
lthumb 17.4588 14.491
rfemur -0.650073 1.20258 21.7999
rtibia 17.0925
rfoot -14.6705 -9.90895
rtoes 20.4384
lfemur 2.53449 0.137509 -17.6064
ltibia 11.7017
lfoot -14.7273 3.07751
ltoes -27.3656
705
root 1.59458 17.8438 5.08208 -0.36279 -1.65135 -2.02918
lowerback 7.70748 0.487925 -0.324498
upperback -1.98604 0.731874 1.8216
thorax -6.43591 0.411448 1.99239
lowerneck -14.7343 1.95306 0.607285
upperneck 12.1315 3.05302 -3.52814
head 6.16415 1.21992 -0.932111
rclavicle -3.65888e-015 -9.74045e-015
rhumerus -29.3997 -22.7615 -78.7712
rradius 27.9851
rwrist -1.09758
rhand -9.39937 -35.811
rfingers 7.12502
rthumb 16.562 -65.1243
lclavicle -3.65888e-015 -9.74045e-015
lhumerus -39.4344 23.6642 78.8359
lradius 39.9445
lwrist -1.50808
lhand -7.99749 -14.6178
lfingers 7.12502
lthumb 17.9113 14.5774
rfemur -0.380896 1.07555 21.8549
rtibia 17.1302
rfoot -14.8182 -9.89709
rtoes 20.7468
lfemur 2.85899 0.0218912 -17.5541
ltibia 11.5929
lfoot -14.7259 3.07109
ltoes -27.6753
